<mxfile host="app.diagrams.net" modified="2021-10-20T08:26:18.442Z" agent="5.0 (Macintosh; Intel Mac OS X 10_15_7) AppleWebKit/537.36 (KHTML, like Gecko) Chrome/86.0.4240.193 Safari/537.36" etag="A2fQQ0uNhYvwP0UGZm9B" version="15.5.6" type="github">
  <diagram id="LsqjZ6Bxk7MNGxIdb_1i" name="Page-1">
    <mxGraphModel dx="946" dy="536" grid="1" gridSize="10" guides="1" tooltips="1" connect="1" arrows="1" fold="1" page="1" pageScale="1" pageWidth="827" pageHeight="1169" math="0" shadow="0">
      <root>
        <mxCell id="0" />
        <mxCell id="1" parent="0" />
        <mxCell id="u_MwGVVLuFFgwvRyVM5R-8" style="edgeStyle=orthogonalEdgeStyle;rounded=0;orthogonalLoop=1;jettySize=auto;html=1;exitX=1;exitY=0.5;exitDx=0;exitDy=0;entryX=0;entryY=0.5;entryDx=0;entryDy=0;" edge="1" parent="1" source="u_MwGVVLuFFgwvRyVM5R-1" target="u_MwGVVLuFFgwvRyVM5R-3">
          <mxGeometry relative="1" as="geometry" />
        </mxCell>
        <mxCell id="u_MwGVVLuFFgwvRyVM5R-11" style="edgeStyle=orthogonalEdgeStyle;rounded=0;orthogonalLoop=1;jettySize=auto;html=1;exitX=1;exitY=0.5;exitDx=0;exitDy=0;entryX=0;entryY=0.5;entryDx=0;entryDy=0;" edge="1" parent="1" source="u_MwGVVLuFFgwvRyVM5R-1" target="u_MwGVVLuFFgwvRyVM5R-2">
          <mxGeometry relative="1" as="geometry" />
        </mxCell>
        <mxCell id="u_MwGVVLuFFgwvRyVM5R-1" value="单车冻结" style="rounded=0;whiteSpace=wrap;html=1;" vertex="1" parent="1">
          <mxGeometry x="80" y="210" width="120" height="60" as="geometry" />
        </mxCell>
        <mxCell id="u_MwGVVLuFFgwvRyVM5R-17" style="edgeStyle=orthogonalEdgeStyle;rounded=0;orthogonalLoop=1;jettySize=auto;html=1;exitX=1;exitY=0.5;exitDx=0;exitDy=0;entryX=0;entryY=0.5;entryDx=0;entryDy=0;" edge="1" parent="1" source="u_MwGVVLuFFgwvRyVM5R-2" target="u_MwGVVLuFFgwvRyVM5R-7">
          <mxGeometry relative="1" as="geometry" />
        </mxCell>
        <mxCell id="u_MwGVVLuFFgwvRyVM5R-18" style="edgeStyle=orthogonalEdgeStyle;rounded=0;orthogonalLoop=1;jettySize=auto;html=1;exitX=1;exitY=0.5;exitDx=0;exitDy=0;entryX=0;entryY=0.5;entryDx=0;entryDy=0;" edge="1" parent="1" source="u_MwGVVLuFFgwvRyVM5R-2" target="u_MwGVVLuFFgwvRyVM5R-12">
          <mxGeometry relative="1" as="geometry" />
        </mxCell>
        <mxCell id="u_MwGVVLuFFgwvRyVM5R-19" style="edgeStyle=orthogonalEdgeStyle;rounded=0;orthogonalLoop=1;jettySize=auto;html=1;exitX=1;exitY=0.5;exitDx=0;exitDy=0;entryX=0;entryY=0.5;entryDx=0;entryDy=0;" edge="1" parent="1" source="u_MwGVVLuFFgwvRyVM5R-2" target="u_MwGVVLuFFgwvRyVM5R-13">
          <mxGeometry relative="1" as="geometry" />
        </mxCell>
        <mxCell id="u_MwGVVLuFFgwvRyVM5R-20" style="edgeStyle=orthogonalEdgeStyle;rounded=0;orthogonalLoop=1;jettySize=auto;html=1;exitX=1;exitY=0.5;exitDx=0;exitDy=0;entryX=0;entryY=0.5;entryDx=0;entryDy=0;" edge="1" parent="1" source="u_MwGVVLuFFgwvRyVM5R-2" target="u_MwGVVLuFFgwvRyVM5R-14">
          <mxGeometry relative="1" as="geometry" />
        </mxCell>
        <mxCell id="u_MwGVVLuFFgwvRyVM5R-21" style="edgeStyle=orthogonalEdgeStyle;rounded=0;orthogonalLoop=1;jettySize=auto;html=1;exitX=1;exitY=0.5;exitDx=0;exitDy=0;entryX=0;entryY=0.5;entryDx=0;entryDy=0;" edge="1" parent="1" source="u_MwGVVLuFFgwvRyVM5R-2" target="u_MwGVVLuFFgwvRyVM5R-15">
          <mxGeometry relative="1" as="geometry" />
        </mxCell>
        <mxCell id="u_MwGVVLuFFgwvRyVM5R-2" value="DepositActionFreezeService#freeze" style="rounded=0;whiteSpace=wrap;html=1;" vertex="1" parent="1">
          <mxGeometry x="270" y="360" width="230" height="60" as="geometry" />
        </mxCell>
        <mxCell id="u_MwGVVLuFFgwvRyVM5R-9" style="edgeStyle=orthogonalEdgeStyle;rounded=0;orthogonalLoop=1;jettySize=auto;html=1;exitX=1;exitY=0.5;exitDx=0;exitDy=0;entryX=0;entryY=0.5;entryDx=0;entryDy=0;" edge="1" parent="1" source="u_MwGVVLuFFgwvRyVM5R-3" target="u_MwGVVLuFFgwvRyVM5R-5">
          <mxGeometry relative="1" as="geometry" />
        </mxCell>
        <mxCell id="u_MwGVVLuFFgwvRyVM5R-10" style="edgeStyle=orthogonalEdgeStyle;rounded=0;orthogonalLoop=1;jettySize=auto;html=1;exitX=1;exitY=0.5;exitDx=0;exitDy=0;entryX=0;entryY=0.5;entryDx=0;entryDy=0;" edge="1" parent="1" source="u_MwGVVLuFFgwvRyVM5R-3" target="u_MwGVVLuFFgwvRyVM5R-6">
          <mxGeometry relative="1" as="geometry" />
        </mxCell>
        <mxCell id="u_MwGVVLuFFgwvRyVM5R-3" value="DepositActionFreezeService#check&lt;br&gt;主要校验保证金总额和余额是否足够" style="rounded=0;whiteSpace=wrap;html=1;" vertex="1" parent="1">
          <mxGeometry x="270" y="120" width="230" height="60" as="geometry" />
        </mxCell>
        <mxCell id="u_MwGVVLuFFgwvRyVM5R-5" value="查询用户是否有保证金账户，没有直接返回" style="rounded=0;whiteSpace=wrap;html=1;fillColor=#f8cecc;strokeColor=#b85450;" vertex="1" parent="1">
          <mxGeometry x="550" y="80" width="330" height="50" as="geometry" />
        </mxCell>
        <mxCell id="u_MwGVVLuFFgwvRyVM5R-6" value="1. 店铺账户和平台账户钱不够，返回总额不足&lt;br&gt;2. 店铺保证余额 &amp;gt; 冻结金额，返回余额和总额够&lt;br&gt;3. 平台保证金余额 &amp;gt; 冻结金额，返回余额和总额够&lt;br&gt;4. 上面都不满足，返回余额不足" style="rounded=0;whiteSpace=wrap;html=1;" vertex="1" parent="1">
          <mxGeometry x="550" y="160" width="330" height="75" as="geometry" />
        </mxCell>
        <mxCell id="u_MwGVVLuFFgwvRyVM5R-7" value="先找出需要冻结的账户&lt;br&gt;1. 这次竞拍有冻结，返回冻结的账户&lt;br&gt;2. 店铺账户余额够，返回店铺账户&lt;br&gt;3. 否则返回平台账户" style="rounded=0;whiteSpace=wrap;html=1;" vertex="1" parent="1">
          <mxGeometry x="550" y="280" width="230" height="60" as="geometry" />
        </mxCell>
        <mxCell id="u_MwGVVLuFFgwvRyVM5R-12" value="需要解冻的用户不为空，解冻这个用户" style="rounded=0;whiteSpace=wrap;html=1;" vertex="1" parent="1">
          <mxGeometry x="550" y="360" width="230" height="60" as="geometry" />
        </mxCell>
        <mxCell id="u_MwGVVLuFFgwvRyVM5R-13" value="有冻结，返回用户已经冻结" style="rounded=0;whiteSpace=wrap;html=1;fillColor=#f8cecc;strokeColor=#b85450;" vertex="1" parent="1">
          <mxGeometry x="550" y="470" width="230" height="60" as="geometry" />
        </mxCell>
        <mxCell id="u_MwGVVLuFFgwvRyVM5R-14" value="对账户表进行冻结&lt;br&gt;（增加冻结余额，减少可用余额）" style="rounded=0;whiteSpace=wrap;html=1;" vertex="1" parent="1">
          <mxGeometry x="550" y="570" width="230" height="60" as="geometry" />
        </mxCell>
        <mxCell id="u_MwGVVLuFFgwvRyVM5R-15" value="往t_deposit_action_freeze表中插入一条&lt;br&gt;冻结记录" style="rounded=0;whiteSpace=wrap;html=1;" vertex="1" parent="1">
          <mxGeometry x="550" y="670" width="230" height="60" as="geometry" />
        </mxCell>
        <mxCell id="u_MwGVVLuFFgwvRyVM5R-22" value="单车冻结如何确定是否已经冻结？&lt;br&gt;&lt;div&gt;c_member_code&lt;/div&gt;&lt;div&gt;c_target_type&lt;/div&gt;&lt;div&gt;c_target_code&lt;/div&gt;&lt;div&gt;c_auction_mode&lt;/div&gt;&lt;div&gt;c_operation_type&lt;/div&gt;&lt;div&gt;c_relation_id is null&lt;/div&gt;&lt;div&gt;根据这6个条件从t_deposit_action_freeze表中查询对应的记录&lt;/div&gt;" style="shape=note;strokeWidth=2;fontSize=14;size=20;whiteSpace=wrap;html=1;fillColor=#fff2cc;strokeColor=#d6b656;fontColor=#666600;" vertex="1" parent="1">
          <mxGeometry x="124" y="505" width="290" height="160" as="geometry" />
        </mxCell>
      </root>
    </mxGraphModel>
  </diagram>
</mxfile>
